<svg width="800" height="332" viewBox="0 0 800 332" fill="none" xmlns="http://www.w3.org/2000/svg">
<path d="M71.4312 126.865C69.5006 126.383 70.4659 125.419 69.9832 123.973C71.9138 124.455 70.9485 125.419 71.4312 126.865ZM10.1355 274.829C4.82643 269.528 15.4446 267.118 10.1355 274.829V274.829ZM69.9832 19.8685C69.5006 19.3866 69.018 18.4226 69.018 16.4948C70.9485 17.9407 69.9832 18.4226 69.9832 19.8685ZM67.57 29.5079L67.0874 30.9538C65.6395 30.4718 65.1568 29.0259 67.57 29.5079ZM62.7436 38.6653C59.3651 38.6653 62.7436 40.5931 62.7436 38.6653V38.6653ZM223.946 0.589858C221.533 3.96361 225.877 11.6751 224.429 16.9767C222.981 22.2784 217.672 24.6882 214.293 30.4718C210.432 28.5439 212.846 31.9177 214.293 30.4718C215.741 41.5571 211.398 49.7505 204.158 57.944C196.918 66.1374 189.196 73.3669 181.956 82.5243C174.234 92.6456 170.373 103.249 158.79 97.9472C160.237 98.4292 157.824 93.6095 156.376 97.4653C161.685 103.731 150.102 106.141 150.102 109.996C150.102 111.442 154.928 110.478 153.48 113.852C152.033 115.298 150.102 112.888 148.654 114.816C146.241 117.226 143.828 122.046 140.449 125.901C136.588 129.757 132.244 133.131 126.452 133.613C125.005 131.203 129.831 129.757 133.209 127.829C136.588 125.901 139.001 123.01 133.692 117.226C127.418 124.455 119.695 130.721 112.456 136.987C105.216 142.77 97.4939 148.072 91.2195 152.41C87.841 154.337 84.4625 153.855 81.084 155.783L77.2229 160.121C82.532 165.905 87.3584 171.688 93.6327 176.99C101.838 184.219 110.525 187.111 106.181 196.751C106.664 195.305 101.838 197.714 105.216 199.16C109.56 194.823 113.421 203.98 115.834 203.98C117.765 203.98 117.282 199.642 119.213 201.088C120.661 201.57 118.73 203.98 120.178 205.426C124.522 209.282 135.14 212.655 136.588 222.777C133.209 225.187 131.762 208.318 122.591 217.475C134.657 227.596 146.241 240.61 155.411 249.767C157.342 252.177 157.342 256.033 159.272 257.478C162.651 260.852 167.477 260.37 170.856 263.744C186.3 276.757 194.022 295.072 207.054 312.423L205.123 313.869C200.779 308.567 196.436 309.049 195.953 302.783C187.748 306.639 187.748 293.626 180.026 297.482C182.439 302.301 189.196 300.373 185.335 307.121C180.026 303.747 175.199 296.036 170.856 297.482C172.786 297 173.269 302.301 170.856 300.373C168.925 294.108 162.168 292.662 158.307 289.288C152.998 285.914 151.067 281.095 147.206 276.757C138.036 267.6 123.557 260.37 117.282 248.321C121.143 254.587 123.557 244.947 117.282 247.357C109.077 241.573 103.768 230.488 94.1154 222.777C92.1848 221.331 88.8063 220.367 86.8757 218.439C72.8791 205.426 62.2609 188.075 49.7122 180.364C47.7817 187.593 46.3337 193.859 44.4032 199.642C42.9552 203.498 40.542 205.426 40.0594 208.8C38.6114 214.101 41.0247 218.439 39.5767 223.741C37.6462 235.308 33.785 245.911 29.4412 256.996C25.0974 268.082 19.7884 279.167 15.4446 291.216L13.514 290.734C15.9272 283.023 13.514 279.649 18.8231 274.347C12.0661 270.492 22.2016 259.406 15.9272 255.551C13.514 261.334 17.8578 267.118 10.6181 267.118C10.6181 260.852 14.9619 250.731 12.5487 246.875C13.9966 248.803 9.17022 252.659 9.65286 249.285C13.9966 243.019 12.0661 235.79 13.514 229.524C14.9619 222.295 17.3751 217.475 18.8231 210.246C20.7536 203.016 21.7189 194.823 23.1669 185.665L0.482643 190.003L0 187.111C3.86114 185.665 6.27436 184.701 8.68757 183.255C11.1008 181.81 13.0314 181.328 16.8925 182.773C16.4099 177.472 19.7884 176.508 23.1669 175.062L26.0627 173.616C26.5454 171.206 27.5106 169.278 27.9933 167.832C25.5801 169.278 24.1321 170.242 22.6842 171.688C21.2363 173.134 20.271 172.652 16.8925 169.278C20.271 166.869 23.1669 165.423 26.5454 163.977C28.4759 163.013 29.9239 162.049 30.8892 161.085C30.8892 159.639 31.3718 160.121 31.3718 158.675C30.4065 158.675 29.4412 158.193 28.9586 157.711V157.229C28.9586 157.229 28.9586 156.747 29.4412 156.265H31.8544V155.783C30.4065 154.337 29.9239 153.373 30.4065 152.892C30.4065 152.41 33.785 150 33.3024 149.518C31.8544 146.144 28.9586 146.144 27.5106 143.734C27.028 142.288 28.9586 140.36 28.9586 138.914C28.9586 137.469 26.0627 136.987 27.9933 134.577C29.9239 136.987 34.7503 135.541 38.6114 135.541C40.0594 131.685 41.0247 127.347 41.5073 123.01C41.9899 119.636 41.0247 116.262 42.4726 112.888C47.7817 89.7538 60.3304 63.2456 58.8824 46.3767C61.2957 46.3767 63.7089 47.3407 64.1915 42.039C64.1915 40.5931 64.6742 39.1472 62.7436 38.6653L63.7089 35.7735C66.1221 36.7374 67.57 36.2554 68.0527 34.3275C65.6395 33.3636 64.1915 33.8456 63.7089 35.7735C58.3998 32.8816 65.6395 30.9538 67.0874 30.9538C69.5006 31.4357 69.018 29.9899 67.57 29.5079C72.3964 28.5439 69.9832 16.0128 73.3617 15.0489C73.3617 15.5308 73.3617 15.5308 73.8444 15.5308H75.2923C75.7749 16.0128 76.7402 16.0128 77.2229 16.0128C79.6361 12.639 78.1882 9.74723 80.1187 6.37345C81.5667 4.92754 83.0146 5.89149 84.4625 4.44558C85.9105 2.99969 84.4625 -0.374093 87.841 1.07182C86.3931 5.40953 92.1848 10.2292 91.7022 15.5308C91.7022 20.8325 88.8063 25.6521 87.3584 31.9177C83.9799 31.9177 86.8757 33.8456 87.3584 31.9177C95.0807 49.7505 83.0146 70.4751 79.1535 92.1636C76.7402 105.177 77.7055 114.816 68.0527 117.226C69.5006 116.744 65.1568 114.334 65.6395 118.19C72.3964 119.636 64.6742 128.793 66.1221 131.685C66.6047 133.131 68.0527 130.239 69.5006 131.685L79.6361 122.046C85.4278 116.744 91.2195 111.442 98.4592 109.032C91.2195 111.924 102.32 116.744 99.4245 108.551C103.286 104.213 108.112 100.839 113.421 96.9833C118.73 93.6095 124.522 89.2718 128.383 83.9702C130.796 81.5603 131.762 78.1866 133.692 75.7767C141.414 66.6194 150.585 59.3899 159.755 51.1964C167.96 43.003 174.717 34.8095 177.13 26.6161C179.543 28.062 181.956 29.9899 184.37 25.6521C184.852 24.2062 185.818 23.7243 184.37 22.2784L185.818 19.8685C189.196 23.2423 190.161 22.7603 191.609 21.3144C188.231 17.9407 187.265 18.4226 185.818 19.8685C180.508 14.5669 189.196 17.4587 191.609 17.4587C194.022 18.9046 193.54 17.9407 192.092 16.4948C198.366 17.9407 199.814 4.92754 203.675 6.37345L204.158 6.85541C204.641 7.3374 205.123 7.81936 205.606 7.81936L207.536 9.26524C210.915 7.3374 209.95 3.48165 213.328 1.55378C215.259 0.107868 217.672 2.99969 219.12 2.5177C221.05 2.03574 220.568 -1.33802 223.946 0.589858ZM157.824 109.514C156.376 108.069 157.824 107.105 158.307 105.659C160.237 107.587 158.307 108.069 157.824 109.514ZM114.386 139.396C115.834 141.806 113.904 142.77 112.456 144.216C110.525 140.842 112.938 140.842 114.386 139.396ZM14.9619 170.724C16.4099 172.17 16.4099 174.098 11.1008 173.616C11.5834 169.278 13.514 169.278 14.9619 170.724ZM198.366 8.78328C196.436 7.3374 197.884 6.37345 197.884 4.92754C199.814 6.85541 198.366 7.3374 198.366 8.78328ZM192.092 16.4948L191.609 17.4587C190.161 16.0128 189.679 14.5669 192.092 16.4948ZM184.37 22.2784C180.508 20.3505 182.922 23.7243 184.37 22.2784V22.2784ZM115.834 197.714C114.386 199.16 113.904 197.714 112.456 197.232C114.386 195.787 114.386 197.232 115.834 197.714ZM146.241 233.38C144.31 235.308 143.828 233.862 142.38 232.416C144.31 230.97 144.793 232.898 146.241 233.38ZM190.644 310.495C183.887 312.905 187.748 302.301 190.644 310.495V310.495Z" fill="white"/>
<path d="M247.815 208.318C245.884 206.872 246.849 206.39 246.849 204.944C248.78 206.39 247.815 206.872 247.815 208.318ZM218.856 268.082C214.995 264.226 222.234 263.262 218.856 268.082V268.082ZM247.815 103.249C248.297 103.731 248.78 104.213 248.78 105.177C248.297 104.695 247.815 104.213 247.815 103.249ZM247.332 112.406C245.884 111.924 245.401 110.96 247.332 111.442V112.406ZM244.436 117.226C242.023 117.226 244.436 118.672 244.436 117.226V117.226ZM329.864 95.5374C329.381 96.0194 327.933 95.5374 326.485 94.5735C326.968 93.1276 328.416 95.0554 329.864 95.5374ZM329.381 153.855C327.933 152.41 330.346 151.446 331.794 150C333.242 151.446 330.829 152.41 329.381 153.855ZM228.509 92.1636C228.991 90.7177 229.957 91.1997 231.405 90.7177C231.405 92.1636 229.957 91.6817 228.509 92.1636ZM241.54 91.6817C241.54 92.1636 240.575 93.1276 240.575 91.6817H241.54ZM249.262 93.6095C250.71 95.5374 251.193 93.6095 249.262 93.6095V93.6095ZM343.378 267.118L353.513 287.36L352.065 288.324C349.652 283.987 346.274 284.469 346.274 279.167C342.895 280.613 342.413 278.685 340.965 277.239C339.034 274.829 337.104 273.865 335.656 274.347C337.104 278.203 341.93 277.239 338.551 281.577C335.173 279.167 332.76 273.383 329.381 273.865C330.829 273.865 330.346 277.721 328.899 276.275C327.451 270.973 324.072 270.973 320.694 267.6C317.315 265.19 315.867 262.298 313.454 258.924C307.662 251.695 297.044 247.357 292.7 238.2C295.114 243.019 297.527 236.754 292.7 238.2C286.909 234.344 283.53 227.114 276.29 221.813C274.36 220.367 272.429 220.367 270.981 218.921C265.19 214.583 260.363 209.764 255.054 204.462C252.158 201.57 249.262 199.16 246.367 197.232L241.058 220.367C240.575 222.777 238.162 224.223 238.162 226.151C237.679 229.524 239.61 232.416 239.127 235.79C237.679 250.731 229.957 263.744 224.648 279.167L223.2 278.685C224.648 273.383 222.234 271.455 225.613 268.082C219.339 265.672 227.544 258.924 222.234 256.033C220.304 259.888 224.165 262.78 218.373 263.262C217.891 258.924 220.787 252.659 218.373 250.249C219.821 251.695 216.443 253.623 216.443 251.695C219.821 247.839 217.408 243.019 217.891 239.164C218.373 234.826 220.304 230.97 220.787 226.632C222.717 217.475 221.269 204.944 227.061 195.787C223.2 200.606 231.405 198.678 227.061 195.787C227.061 192.413 227.544 190.003 228.991 186.629C225.613 186.629 223.2 186.629 221.752 186.147V185.183C225.13 185.183 227.544 184.701 229.957 184.219C229.957 182.773 230.439 183.255 230.439 181.81C228.026 180.364 226.578 179.4 226.578 178.436C227.061 178.436 227.061 178.436 227.061 177.954C227.061 177.472 227.061 177.472 227.544 176.99L228.509 176.026C227.061 174.098 225.13 174.098 223.682 172.17C223.2 170.724 224.648 170.242 224.165 168.796C224.165 167.351 221.752 167.832 223.2 165.905C225.13 167.832 229.474 164.941 232.853 165.423V164.459C235.266 149.036 243.953 133.613 241.54 122.046C243.471 122.046 245.401 122.528 245.401 119.154C245.401 118.19 244.919 117.708 244.436 117.226L244.919 115.298C246.367 115.78 247.815 115.78 248.297 114.334C246.849 113.852 245.401 113.852 244.919 115.298C239.61 113.852 246.849 112.406 247.332 112.406C249.262 112.406 248.78 111.442 247.332 111.442C251.193 109.996 248.78 102.285 251.193 102.285C251.676 101.803 254.572 103.249 254.572 102.767C256.019 100.839 254.572 98.4292 256.019 96.5013C256.502 95.0554 257.95 96.9833 259.398 95.5374C259.881 95.5374 259.881 95.5374 259.881 95.0554C259.398 95.5374 258.433 95.5374 256.985 95.5374C256.502 94.0915 256.502 92.6456 252.158 92.6456C250.71 92.6456 249.745 93.1276 249.262 93.6095L246.849 93.1276C247.332 91.6817 246.367 90.7177 244.436 90.7177C243.953 92.1636 244.919 93.1276 246.849 93.1276C245.401 96.9833 242.988 92.1636 241.54 91.6817C241.54 90.2358 240.575 90.2358 240.575 91.6817C237.196 88.3079 228.026 91.1997 226.096 89.2718V86.862C222.717 85.4161 220.304 87.3439 216.925 86.862C215.477 86.38 215.96 85.4161 214.512 83.9702C213.064 83.4882 210.651 84.4521 210.651 83.0062C214.512 83.0062 217.408 78.6685 222.717 78.1866C227.061 77.7046 232.37 79.1505 238.644 79.1505C240.092 79.1505 240.092 81.0784 238.644 79.1505C245.884 76.2587 254.572 75.7767 264.707 77.2226C274.843 78.6685 284.495 80.5964 295.596 82.5243C301.871 83.9702 307.18 84.9341 311.523 86.38C316.35 87.8259 319.246 90.2358 320.211 93.6095C319.728 93.1276 317.315 94.0915 320.694 95.5374C322.142 93.6095 324.555 95.0554 326.968 96.5013C329.381 98.4292 331.794 100.839 333.242 101.321C334.69 101.803 331.794 97.4653 335.173 99.3931C336.621 100.839 336.138 102.285 337.586 104.213C339.517 105.659 340.965 108.069 342.413 110.478C344.826 113.852 345.791 116.744 346.274 120.118C346.756 123.492 346.274 126.865 345.308 130.721C343.861 134.095 342.413 136.505 340.482 138.914C339.999 137.469 342.895 134.095 344.343 128.793C344.826 126.865 344.826 124.937 344.343 122.528C343.861 120.6 342.413 119.636 340.965 120.118C341.447 123.01 341.447 125.901 340.965 128.311C340.482 131.685 339.999 133.613 338.551 136.023L335.173 142.77C334.69 143.252 333.725 144.216 333.242 145.662L330.829 148.554C327.451 152.41 323.589 154.819 320.211 158.193L310.076 164.459C306.697 165.905 303.318 166.387 300.905 167.832C296.561 169.76 293.183 173.134 288.839 175.062C281.6 178.436 273.877 181.328 264.707 182.773C268.086 185.183 270.016 187.593 273.395 190.003C279.669 194.341 285.943 195.787 283.53 203.016C283.53 202.534 280.634 203.498 283.047 204.944C286.426 201.088 288.839 207.836 290.77 207.836C292.218 207.836 291.252 204.944 292.7 205.426C294.148 205.908 292.218 207.836 293.666 208.318C297.044 211.692 304.766 213.619 306.214 220.849C303.318 222.295 302.353 210.728 296.079 216.993C305.249 224.223 313.454 233.38 319.728 239.646C321.176 241.573 321.176 243.983 322.624 245.429C324.555 247.357 328.416 247.839 330.346 250.249C335.656 255.551 339.517 260.852 343.378 267.118ZM256.502 173.134V172.17C255.054 172.17 254.089 171.688 256.019 171.206C263.259 171.206 267.603 167.351 272.912 165.423C278.704 163.013 284.495 161.567 289.804 159.157C295.596 156.747 302.353 152.41 308.145 148.072C311.523 145.662 313.937 143.734 316.35 141.324C319.728 139.396 320.694 137.469 323.107 135.059C321.659 136.505 321.176 136.987 321.176 137.469C321.176 137.951 321.176 138.432 321.659 138.432C323.107 138.432 324.555 136.987 323.107 135.059C325.52 130.721 327.451 126.383 327.933 123.01C327.933 121.082 327.451 119.154 326.485 117.226C325.52 115.78 324.072 113.852 322.142 112.406C319.728 110.96 317.315 110.478 314.902 109.032C305.732 104.695 295.596 100.839 284.978 98.4292C276.773 96.5013 269.051 95.0554 261.811 95.0554C263.259 97.4653 266.155 100.357 266.155 102.767C266.638 106.141 264.224 109.514 263.742 113.37C261.329 113.37 263.742 114.816 263.742 113.37C271.464 125.419 262.776 137.469 261.329 151.928C259.881 160.121 261.811 166.387 254.089 167.832C255.537 167.832 251.676 165.905 252.158 168.314C255.537 169.76 255.054 172.17 253.606 174.098C254.089 174.098 255.054 173.616 256.502 173.134ZM258.433 171.688C258.433 172.17 257.95 172.17 256.985 172.17C257.467 172.652 257.467 172.652 257.467 172.652C257.95 172.652 258.433 172.17 258.433 171.688ZM290.287 203.016C288.839 204.462 289.322 203.498 287.874 203.016C289.322 201.57 289.804 203.016 290.287 203.016ZM313.454 228.078C312.489 229.042 311.523 228.56 310.558 227.114C312.006 225.669 312.006 227.596 313.454 228.078ZM342.413 283.987C337.104 285.432 340.965 278.685 342.413 283.987V283.987ZM228.509 181.81C227.061 183.255 227.544 181.81 226.096 181.81C226.578 181.328 227.544 181.328 228.509 181.81Z" fill="white"/>
<path d="M394.455 201.088C396.386 201.088 395.903 202.052 396.386 203.498C394.455 203.498 394.938 202.534 394.455 201.088ZM406.521 241.573C407.004 241.092 407.486 240.61 408.452 240.61L408.934 241.092C407.486 243.019 407.969 242.055 406.521 241.573ZM390.111 99.8751C388.663 99.3931 389.629 97.9472 389.629 96.5013C391.077 97.9472 390.111 98.4292 390.111 99.8751ZM386.733 109.514L386.25 110.96C384.802 110.478 384.32 109.032 386.733 109.514ZM381.424 118.672C378.045 118.672 380.941 120.6 381.424 118.672V118.672ZM504.498 105.659C503.05 110.96 504.98 114.334 505.463 119.636C505.463 124.937 504.498 128.793 504.015 133.131C502.567 138.432 504.015 144.216 502.567 150C502.084 155.783 501.119 161.567 498.706 166.869C495.81 163.977 501.602 161.567 498.706 166.869C498.223 175.062 493.88 183.737 491.949 193.377C491.466 195.787 491.949 198.196 490.501 200.606L486.157 212.655C485.675 214.101 484.709 215.547 484.227 216.029C484.227 216.029 483.744 216.511 483.261 217.957L482.779 218.439L482.296 219.403L478.918 224.705C477.47 226.151 477.47 227.114 476.022 228.56C476.504 228.56 476.504 229.042 476.022 230.006C474.574 230.488 475.056 231.452 473.609 231.934C470.23 236.272 467.334 240.128 465.404 243.501H464.921L463.956 244.947L462.508 246.875C461.06 248.321 460.095 248.321 458.647 249.767C458.647 250.249 458.164 250.731 457.681 250.731C453.82 254.105 449.476 256.033 444.167 259.406L438.376 262.298C436.928 262.78 436.445 263.744 434.997 264.226C433.066 264.708 431.619 265.19 431.136 265.19C426.792 266.636 421.966 268.082 415.691 268.564C412.313 268.564 410.382 268.564 407.004 268.082C406.038 268.082 404.591 267.6 402.66 267.118C400.247 266.636 398.316 265.672 397.351 265.19C396.386 264.708 394.938 264.226 393.007 262.78C391.559 261.334 391.559 261.816 391.077 261.334L389.629 259.888C387.698 257.96 386.25 256.033 385.285 254.105L388.181 257.478C389.146 257.96 389.629 257.96 389.629 256.514C389.629 254.105 388.181 253.141 384.802 253.141C381.906 250.731 379.493 247.839 377.563 243.501L373.701 232.416C371.288 224.705 370.806 216.993 369.358 209.282C367.91 205.908 366.944 202.052 366.944 198.196C366.462 185.183 368.392 171.206 371.771 159.157C375.149 146.144 377.563 136.023 377.08 126.865C379.493 126.383 380.941 127.347 382.389 122.046C382.389 120.6 382.872 119.154 381.424 118.672L382.389 115.78C384.802 117.226 386.25 116.744 386.733 114.334C383.354 112.888 383.837 114.334 382.389 115.78C377.08 113.37 384.802 110.96 386.25 110.96C388.181 111.442 388.181 109.996 386.733 109.514C388.181 109.032 389.146 106.623 390.594 102.285C392.042 98.9112 392.524 95.5374 393.972 95.0554C394.455 95.0554 397.351 96.9833 397.351 96.5013C399.764 93.1276 399.281 89.7538 401.212 87.3439C402.66 85.898 404.591 87.3439 406.038 85.898C407.486 84.4521 407.004 81.5603 409.417 83.0062C407.486 86.862 412.313 92.1636 410.865 97.4653C410.382 102.767 406.521 106.141 404.591 113.37C402.177 112.888 404.591 114.816 404.591 113.37C407.969 122.528 406.038 130.721 403.625 140.36C401.212 150 398.316 160.603 396.868 170.724C396.386 176.99 396.868 182.292 396.868 186.147C396.386 190.967 394.455 194.341 391.077 195.787C391.559 195.305 387.698 193.859 389.146 197.232C391.559 197.232 392.524 199.16 392.524 202.534C392.524 204.944 391.559 207.354 393.007 208.8C394.455 210.246 395.42 205.908 396.868 208.318C397.351 209.764 394.938 210.246 395.42 212.173C395.903 215.547 397.834 218.921 399.281 222.777C401.212 226.151 402.66 229.524 402.177 233.862C400.247 233.862 399.764 231.452 399.281 228.078C397.834 224.705 397.351 222.777 392.042 224.223C393.49 228.56 395.42 231.934 397.351 234.826C400.247 238.682 402.66 241.573 405.073 243.019C405.073 243.019 405.556 243.501 406.038 243.983C406.521 243.983 406.521 243.983 406.521 244.465C407.004 244.465 407.969 244.947 408.452 244.947C408.452 244.947 408.452 244.947 408.934 245.429H409.9C411.348 245.429 411.83 245.911 412.313 245.911C415.691 246.393 418.587 245.911 421.966 245.429C423.896 245.429 425.344 245.429 426.309 245.911H428.24C429.205 245.911 429.688 245.911 430.171 245.429L434.514 241.573L438.858 236.754L444.65 231.934L450.924 226.632L462.025 216.029C463.473 214.583 464.438 213.619 464.921 212.655C465.404 212.173 465.886 211.692 465.886 211.21L466.852 209.764C466.852 209.282 466.852 208.8 467.334 208.318C467.334 207.836 467.817 206.872 467.817 206.39L469.265 202.052C470.23 199.16 472.161 197.714 475.056 197.232C474.574 197.232 475.539 197.714 476.022 197.714C476.022 197.232 476.022 197.232 476.504 196.751C472.643 195.305 477.952 189.521 476.504 187.593C476.022 187.111 474.091 189.039 474.091 187.111C474.574 185.665 476.022 186.147 476.504 184.701C477.952 180.364 476.022 172.17 481.331 166.869C482.779 168.314 475.056 176.026 482.296 177.472C484.227 165.423 487.123 151.928 488.57 142.288C489.053 140.36 490.984 138.432 490.984 136.023C490.984 132.649 489.536 130.239 489.536 126.865C489.536 119.154 490.018 111.924 491.466 104.213C491.949 100.357 491.949 96.9833 491.949 93.1276C491.949 89.2718 491.466 85.4161 490.501 82.0423L491.466 81.5603C492.914 83.9702 493.397 85.4161 493.879 86.862C494.362 88.7898 494.362 90.2358 493.879 91.6817C495.327 92.1636 496.775 93.6095 497.258 96.9833C497.258 100.357 498.223 102.285 499.671 102.767C500.154 97.4653 496.293 96.5013 500.637 94.0915C502.084 98.4292 501.119 105.659 503.532 107.587C502.084 106.141 504.498 103.249 504.498 105.659ZM473.609 192.895C473.126 192.895 473.126 191.931 473.126 190.485C474.574 190.967 473.609 191.449 473.609 192.895ZM484.227 158.675C482.779 158.193 483.744 157.229 483.744 155.783C485.192 156.265 484.227 157.229 484.227 158.675ZM499.671 92.1636C498.706 93.1276 498.223 92.1636 498.706 89.2718C501.119 90.7177 501.119 91.6817 499.671 92.1636Z" fill="white"/>
<path d="M557.513 208.318C556.548 207.836 556.548 206.39 557.03 204.944C558.478 206.39 557.513 206.872 557.513 208.318ZM529.037 268.082C525.176 264.226 532.416 263.262 529.037 268.082V268.082ZM557.996 103.249C558.478 103.731 558.961 104.213 558.961 105.177C558.478 104.695 557.996 104.213 557.996 103.249ZM557.03 112.406C556.065 111.442 556.065 110.96 557.513 111.442L557.03 112.406ZM554.617 117.226C551.239 117.226 554.134 118.672 554.617 117.226V117.226ZM655.972 120.118C656.455 124.455 656.455 127.829 655.49 130.721C654.042 134.095 652.594 136.505 650.663 138.914C650.18 137.469 652.594 134.095 654.042 128.793C655.007 126.865 655.007 124.937 654.524 122.528C654.042 120.6 652.594 119.636 651.146 120.118C651.628 123.01 651.628 125.901 651.146 128.311C650.663 131.685 650.18 133.613 648.732 136.023L645.354 142.77L640.528 148.554C637.149 152.41 633.771 154.819 630.392 158.193L620.257 164.459C616.878 165.905 613.982 166.387 610.604 167.832C606.743 169.76 603.364 173.134 599.02 175.062C589.367 179.4 578.749 182.773 566.683 184.219C566.201 184.219 565.718 184.701 564.27 184.701C564.753 189.039 564.753 194.341 560.409 197.714C557.03 196.269 567.166 189.521 557.996 186.629C556.548 198.678 553.169 211.21 551.239 220.367C550.756 222.777 548.343 224.223 548.343 226.151C547.86 229.524 549.308 232.416 549.308 235.79C547.86 250.731 540.138 263.744 534.829 279.167L532.898 278.685C534.346 273.383 532.416 271.455 535.794 268.082C529.52 265.672 537.242 258.442 532.416 256.033C530.485 259.888 534.346 262.78 528.554 263.262C528.072 258.924 530.968 252.659 528.554 250.249C530.002 251.695 526.624 253.623 526.624 251.695C530.002 247.839 527.589 243.019 528.072 239.164C528.554 234.826 529.52 230.97 530.968 226.632C532.898 217.475 531.45 204.944 537.242 195.787C533.381 200.606 541.586 198.678 537.242 195.787C537.242 192.413 537.725 190.003 539.173 186.629C535.794 186.629 533.381 186.629 531.933 186.147V185.183C534.346 185.183 537.242 184.701 539.655 184.219C541.103 179.882 542.551 175.544 543.034 171.206C543.034 168.796 542.551 166.387 543.034 164.459C545.447 149.036 554.135 133.613 551.721 122.046C553.652 122.046 555.582 122.528 555.582 119.154C555.582 118.19 555.1 117.708 554.617 117.226V115.298C557.996 116.744 557.996 115.78 558.478 114.334C555.1 112.888 555.1 113.852 554.617 115.298C550.273 113.37 555.582 112.406 557.03 112.406C558.961 112.406 558.961 111.442 557.513 111.442C561.374 109.996 558.961 102.285 561.374 102.285C561.857 101.803 564.27 103.249 564.753 102.767C566.201 100.839 564.753 98.4292 566.201 96.5013C566.683 95.0554 568.131 96.9833 569.579 95.5374C570.062 95.5374 570.062 95.5374 570.062 95.0554C569.579 95.5374 568.614 95.5374 567.166 95.5374C566.683 94.0915 566.683 92.6456 562.339 92.6456C560.891 92.6456 559.444 92.1636 559.444 93.6095L557.03 93.1276C557.513 91.6817 556.548 90.7177 554.617 90.7177C553.652 92.1636 554.617 93.1276 557.03 93.1276C555.1 96.9833 553.169 92.1636 551.721 91.6817C551.721 90.2358 550.756 90.2358 550.756 91.6817C547.377 88.3079 538.207 91.1997 536.277 89.2718V86.862C532.898 85.4161 530.485 87.3439 527.107 86.862C525.659 86.38 526.141 85.4161 524.693 83.9702C523.245 83.4882 520.832 84.4521 520.832 83.0062C524.693 83.0062 527.589 78.6685 532.898 78.1866C537.242 77.7046 542.551 79.1505 548.825 79.1505C549.308 81.0784 550.273 79.1505 548.825 79.1505C556.065 76.2587 564.753 75.7767 574.888 77.2226L605.777 82.5243C611.569 83.9702 617.361 84.9341 621.705 86.38C627.014 87.8259 629.427 90.2358 629.909 93.6095C629.909 93.1276 627.496 94.0915 630.875 95.5374C631.357 94.0915 633.771 94.5735 637.149 96.5013C639.562 98.4292 641.975 100.839 643.423 101.321C644.871 101.803 641.976 97.4653 645.354 99.3931C646.802 100.839 645.837 102.285 647.767 104.213C649.215 106.141 651.146 108.069 652.594 110.478C654.042 112.888 655.49 116.262 655.972 120.118ZM568.614 171.688C568.614 172.17 568.131 172.17 567.166 172.17C567.648 172.652 567.648 172.652 567.648 172.652C568.131 172.652 568.614 172.17 568.614 171.688ZM636.666 117.226C635.701 115.298 634.253 113.852 631.84 112.406L625.083 109.032C615.913 104.695 606.26 100.839 595.159 98.4292C586.954 96.5013 579.232 95.0554 571.992 95.0554C573.44 97.4653 576.336 100.357 576.336 102.767C576.819 106.141 574.406 109.514 573.923 113.37C571.51 113.37 573.923 114.816 573.923 113.37C581.162 124.455 572.958 137.951 571.51 151.928C570.062 160.121 571.992 166.387 564.27 167.832C565.718 167.832 561.857 165.905 562.339 168.314C565.718 169.76 565.235 172.17 563.787 174.098C564.27 174.098 565.235 173.616 566.683 173.134V172.17C565.235 172.17 564.27 171.688 566.201 171.206C572.475 171.206 577.784 167.351 583.093 165.423C588.885 163.013 594.194 161.567 599.986 159.157C605.777 156.747 612.534 152.41 618.326 148.072C621.704 145.662 624.118 143.734 626.531 141.324L633.288 135.059C631.84 136.023 631.357 136.987 631.357 137.469C631.357 137.951 631.357 138.432 631.84 138.432C633.288 138.432 634.736 136.987 633.288 135.059C635.701 130.721 637.632 126.383 637.632 123.01C638.114 121.564 637.632 119.636 636.666 117.226ZM640.045 95.5374C639.562 96.0194 638.114 95.5374 636.666 94.5735C637.149 93.1276 638.597 95.0554 640.045 95.5374ZM639.562 153.855C638.114 152.41 640.528 151.446 641.975 150C643.423 151.446 641.01 152.41 639.562 153.855ZM541.586 90.7177C541.103 92.1636 540.138 91.6817 538.69 92.1636C538.69 90.7177 540.138 91.1997 541.586 90.7177ZM551.721 91.6817C551.721 92.1636 550.756 93.1276 550.756 91.6817H551.721ZM559.444 93.6095C559.926 95.5374 560.891 93.6095 559.444 93.6095V93.6095Z" fill="white"/>
<path d="M799.159 163.977C797.711 165.423 796.263 165.905 795.78 166.387C793.85 166.869 794.332 167.832 795.78 167.832C793.85 169.278 793.85 171.688 793.85 175.062C793.85 179.4 793.367 181.328 792.402 181.81C791.919 181.81 790.954 181.328 789.506 181.328L788.058 186.147C788.058 187.593 787.575 189.039 787.093 190.003L786.61 190.485C786.127 193.859 785.162 196.269 783.714 199.642C781.784 203.498 779.853 207.354 778.405 211.21L776.957 217.475C775.027 220.849 773.096 224.705 770.683 228.078C771.165 228.078 771.165 228.56 770.683 229.042L767.787 231.452C767.304 232.898 766.822 233.38 766.339 233.862C765.856 235.308 765.374 235.79 764.891 236.272C763.443 239.646 761.995 242.055 760.065 244.465L756.686 247.839L754.756 249.285L751.86 252.177H751.377L746.068 256.514H745.585C746.068 257.478 745.585 257.96 744.137 257.96L737.38 263.262C733.519 266.154 729.658 268.564 725.797 270.01C725.314 270.492 724.832 270.492 724.349 270.492L722.418 271.455L719.04 272.419C716.627 272.901 714.696 273.383 712.283 273.383C708.422 273.865 704.561 273.383 700.217 272.419C702.147 272.901 703.113 272.901 703.595 272.419C705.043 272.419 705.043 271.937 704.078 270.973C703.595 270.492 701.182 269.528 699.252 271.937C697.321 271.937 695.873 271.455 693.943 271.455L691.047 270.492L684.29 267.118L682.842 265.672C681.394 264.708 679.946 263.262 678.981 261.816C676.567 259.406 674.154 256.514 671.741 252.659L666.432 242.055L662.571 231.934C661.123 225.669 661.605 219.403 663.053 213.137C663.536 207.836 664.501 202.052 666.915 196.269C670.293 185.183 673.189 176.026 673.672 168.314C675.602 168.314 677.05 169.278 678.498 164.941C678.981 163.495 678.981 162.531 678.015 162.049L678.981 159.639C681.394 161.085 681.876 160.121 683.324 158.675C680.911 157.229 680.429 158.193 678.981 159.639C675.12 156.265 681.394 156.265 682.842 155.783C684.29 156.265 683.807 154.819 683.324 154.819C686.703 153.855 687.668 144.216 690.081 142.77C690.564 142.77 692.977 144.698 693.46 144.216C695.391 141.806 694.908 138.914 696.838 136.505C698.286 135.059 699.252 136.987 700.7 135.541C702.148 135.059 701.182 131.685 703.595 133.131C702.148 136.505 706.009 141.324 705.526 145.662C704.078 150 701.182 153.855 699.252 159.157C696.838 158.675 698.769 160.603 699.252 159.157C701.182 166.869 699.734 174.58 696.356 182.773C693.943 190.967 690.564 198.678 689.116 207.836C688.633 213.137 689.116 216.511 688.633 219.885C688.633 223.259 687.186 226.151 684.29 227.596C684.772 227.114 680.911 226.151 682.359 228.56C685.738 228.56 685.738 230.488 686.22 232.416C686.22 234.826 686.703 236.272 687.668 236.754C688.151 236.754 688.633 236.272 689.116 235.79C689.599 235.308 690.081 234.826 690.564 235.308C692.012 236.754 689.599 236.754 690.081 238.2C691.529 240.128 693.46 241.573 695.391 243.019L698.769 245.911C699.252 246.393 698.286 246.875 699.734 248.321C699.252 248.803 699.252 248.803 698.769 248.803H698.286C698.286 248.321 697.804 248.321 697.804 247.839L696.838 246.875C695.391 245.429 693.943 243.983 690.564 247.357C691.529 248.803 692.977 249.767 694.425 250.249L695.391 251.213C695.873 251.213 695.873 251.213 695.873 251.695C696.356 251.695 696.838 251.695 697.321 252.177C699.734 252.659 703.595 253.141 706.974 252.659C709.87 252.659 712.766 252.177 716.144 251.695C716.627 251.213 717.592 251.213 718.557 251.213C718.557 251.213 719.04 250.731 720.488 250.249L723.866 248.803C726.28 247.357 729.658 247.839 731.589 246.393C734.967 243.983 735.932 240.128 738.346 236.754L747.999 227.596L755.238 219.885C756.686 216.029 758.134 212.655 761.513 212.173L763.443 209.764C763.443 207.836 765.856 205.908 765.374 204.462C765.374 203.016 763.443 204.944 763.443 203.498C763.926 202.052 764.891 203.016 765.374 201.57C766.822 199.642 765.856 197.714 767.304 194.341C767.787 190.967 769.235 188.557 771.165 187.111C771.648 188.075 771.165 189.521 769.718 191.449C768.27 193.859 768.752 195.787 771.165 196.269L772.131 193.859C773.579 189.521 774.544 185.183 775.027 180.846C776.475 175.544 776.957 171.206 777.44 167.351V165.905C774.061 160.603 774.061 154.819 772.613 148.554C771.165 140.842 769.717 133.131 765.374 125.901C761.995 122.046 759.582 119.636 758.134 116.262C755.721 112.888 755.721 109.996 757.169 107.587C756.686 108.069 760.065 107.105 757.651 105.659C756.204 107.105 754.273 106.623 752.342 104.695C750.894 103.249 749.929 101.321 748.481 101.321C747.033 101.803 748.481 104.695 746.551 104.213C745.103 103.731 747.033 101.803 745.585 101.321C743.655 99.8751 741.242 99.8751 737.863 99.3931C736.415 99.3931 734.967 99.3931 734.485 98.9112C734.002 98.4292 733.519 98.4292 733.519 98.4292C733.037 98.4292 732.554 98.4292 732.071 97.9472C730.623 97.4653 730.141 96.9833 729.658 96.5013C730.141 96.0194 730.623 96.0194 732.071 96.0194H732.554C733.037 96.5013 733.519 96.5013 733.519 96.5013C734.002 96.5013 734.485 96.9833 734.967 96.9833C736.898 97.4653 738.828 98.4292 740.276 93.1276C738.828 93.1276 737.38 92.6456 735.932 92.6456H730.623C727.245 92.6456 723.866 93.1276 720.488 93.6095C713.248 95.0554 707.457 97.4653 703.113 100.357C701.182 101.803 697.804 101.321 696.356 102.767C692.977 106.141 692.977 109.032 691.047 112.406L689.116 115.298L687.186 117.708L682.842 123.492C679.463 126.865 677.533 130.721 674.154 134.577C668.362 141.806 662.571 149.518 657.262 158.675L655.814 158.193C659.192 152.41 657.262 149.036 662.571 145.662C660.158 143.252 661.605 141.324 663.053 137.951C664.501 134.577 665.949 132.649 664.019 130.239C660.158 134.577 663.053 139.878 657.262 138.432C658.71 133.131 664.501 125.901 663.053 122.528C663.536 123.973 659.192 125.901 660.64 123.492C665.949 119.636 665.949 113.852 669.328 108.551C670.776 105.177 672.706 103.731 674.637 101.321L680.911 94.5735C683.324 92.1636 685.738 89.2718 689.116 86.862C692.495 83.4882 696.356 81.0784 699.734 79.6325C707.939 74.8128 716.144 72.8849 724.349 73.8489C721.936 73.8489 720.488 73.8489 720.005 74.3308C719.523 74.8128 719.523 75.2948 720.005 75.7767C720.488 76.2587 722.901 77.2226 724.349 73.8489C727.728 73.3669 729.658 73.3669 733.037 73.3669L738.346 74.3308C740.276 74.3308 741.724 74.8128 743.655 75.2948C750.894 77.7046 757.169 82.0423 762.961 85.898C766.339 87.8259 768.752 89.2718 771.165 91.6817C775.509 95.5374 778.888 100.357 782.266 105.659L786.127 113.852C786.61 115.298 786.61 116.262 788.058 117.708C788.541 119.636 789.023 121.082 789.506 121.564C793.85 132.649 795.298 142.77 798.676 150.482C797.228 151.928 794.332 151.446 795.78 155.783C796.263 157.229 796.263 158.675 797.711 158.675V161.085C795.298 160.603 794.332 161.567 794.332 163.977C797.711 164.459 797.228 163.013 797.711 161.085C799.641 162.049 800.124 163.013 799.159 163.977ZM749.446 106.623C750.894 105.177 750.412 106.141 751.86 106.623C750.412 108.069 750.894 106.623 749.446 106.623ZM720.488 95.5374C720.488 97.4653 719.523 97.4653 718.075 97.9472C717.592 96.0194 719.04 96.0194 720.488 95.5374ZM655.331 144.698C652.918 139.878 660.64 139.396 655.331 144.698V144.698ZM794.815 176.99C795.298 177.472 795.78 178.436 795.78 179.882C795.298 179.4 794.815 178.436 794.815 176.99ZM795.78 166.387C797.228 166.387 797.711 167.832 795.78 167.832V166.387ZM797.711 158.675C797.228 156.747 800.124 157.229 797.711 158.675V158.675ZM687.668 230.97C689.599 230.97 689.116 231.934 689.599 232.416C688.151 232.898 688.151 231.452 687.668 230.97ZM706.974 250.731C706.974 248.803 707.939 249.285 709.387 249.285C709.387 251.213 708.422 250.731 706.974 250.731ZM686.22 143.734C687.668 145.18 686.703 145.18 686.703 146.626C685.255 146.144 686.22 145.18 686.22 143.734ZM682.842 155.783C681.394 155.301 681.394 154.337 683.324 154.819L682.842 155.783ZM678.015 162.049C675.602 162.049 677.533 163.495 678.015 162.049V162.049ZM761.995 205.908C762.478 206.39 762.478 206.872 762.478 207.836C761.995 207.836 761.995 207.354 761.995 205.908ZM773.096 178.436C773.579 178.436 774.061 179.4 774.061 180.846C773.579 180.364 773.096 179.882 773.096 178.436Z" fill="white"/>
<path d="M227.421 298.641V298.244C227.421 296.759 226.906 295.633 225.875 294.868C224.858 294.104 223.511 293.721 221.831 293.721H220.572C219.438 293.721 218.679 293.854 218.296 294.118C217.914 294.383 217.722 294.905 217.722 295.685C217.663 296.155 217.634 296.45 217.634 296.567L217.413 300.649V301.024L217.346 302.127V302.502L217.324 302.855C217.324 303.429 217.45 303.804 217.7 303.98C217.965 304.157 218.473 304.245 219.224 304.245H220.13L220.307 304.223H220.484L221.036 304.201L222.141 304.113C223.673 304.113 224.932 303.569 225.919 302.48C226.92 301.392 227.421 300.112 227.421 298.641ZM216.728 317.13C216.728 317.747 216.927 318.167 217.324 318.387C217.737 318.608 218.731 318.718 220.307 318.718H220.727C223.26 318.718 225.109 318.262 226.272 317.35C227.73 316.203 228.46 314.651 228.46 312.695V312.254C228.46 310.607 227.885 309.305 226.736 308.349C225.602 307.378 223.989 306.893 221.898 306.893H220.02C219.578 306.937 219.114 306.959 218.628 306.959C217.597 306.959 217.081 307.716 217.081 309.231C217.022 309.79 216.993 310.136 216.993 310.268L216.816 313.622V314.041L216.728 316.313V317.13ZM231.95 298.068C231.95 300.406 231.074 302.355 229.321 303.914C228.467 304.664 228.04 305.069 228.04 305.128C228.04 305.186 228.548 305.554 229.564 306.231C231.965 307.805 233.166 310.062 233.166 313.004C233.166 315.931 231.891 318.226 229.343 319.888C227.311 321.226 224.078 321.895 219.644 321.895H219.114L218.584 321.873H218.053C214.754 321.873 212.729 321.792 211.978 321.631C211.227 321.454 210.851 321.16 210.851 320.748V320.395C210.851 320.042 211.072 319.424 211.514 318.542C211.72 317.953 211.875 317.174 211.978 316.203C212.39 312.335 212.596 307.915 212.596 302.943L212.707 299.811L212.751 298.796L212.773 297.251C212.773 295.869 212.67 294.81 212.464 294.074L212.243 293.346C212.14 292.993 212.088 292.662 212.088 292.353C212.088 291.809 212.486 291.434 213.281 291.228C214.077 291.022 215.616 290.919 217.899 290.919L218.407 290.897C218.76 290.882 219.114 290.875 219.467 290.875L221.611 290.831C228.504 290.831 231.95 293.243 231.95 298.068Z" fill="white"/>
<path d="M245.295 293.17V293.434C245.295 294.185 245.074 294.824 244.632 295.354C244.205 295.869 243.542 296.126 242.644 296.126H242.29L241.605 296.038C241.208 296.038 240.825 295.854 240.456 295.486C240.088 295.118 239.904 294.567 239.904 293.832V293.567L240.015 292.772C240.015 292.464 240.199 292.081 240.567 291.625C240.95 291.169 241.436 290.941 242.025 290.941L242.533 290.875H242.975L243.594 290.963C243.977 290.963 244.352 291.155 244.72 291.537C245.103 291.905 245.295 292.449 245.295 293.17ZM244.257 302.48L244.013 308.415L243.969 309.011L243.903 310.82V311.68C243.903 313.798 243.962 315.188 244.08 315.85C244.212 316.512 244.455 317.159 244.809 317.792C245.162 318.409 245.339 318.858 245.339 319.137V319.336C245.339 320.057 244.971 320.63 244.234 321.057C243.498 321.483 242.496 321.697 241.23 321.697H240.677C239.941 321.697 239.381 321.535 238.998 321.211C238.615 320.873 238.424 320.513 238.424 320.13V319.645C238.424 319.454 238.593 318.777 238.932 317.615C239.271 316.438 239.44 314.843 239.44 312.828C239.484 312.254 239.506 311.857 239.506 311.636L239.573 310.423L239.617 309.827C239.691 308.797 239.727 307.996 239.727 307.422L239.749 306.54C239.749 305.436 239.565 304.458 239.197 303.605C238.844 302.752 238.667 302.223 238.667 302.017C238.667 300.958 239.668 300.428 241.672 300.428H242.467C243.218 300.428 243.704 300.627 243.925 301.024C244.146 301.406 244.257 301.892 244.257 302.48Z" fill="white"/>
<path d="M254.685 311.636V312.32C254.685 314.291 255.06 315.835 255.811 316.953C256.563 318.071 257.505 318.63 258.639 318.63H259.413C261.048 318.63 262.322 317.946 263.235 316.578C264.148 315.196 264.605 313.261 264.605 310.776C264.634 310.482 264.649 310.254 264.649 310.092L264.693 309.187V307.863C264.664 307.569 264.649 307.349 264.649 307.202C264.649 306.04 264.369 305.128 263.809 304.466C263.25 303.804 262.425 303.473 261.335 303.473H260.716C258.978 303.473 257.535 304.201 256.386 305.657C255.252 307.113 254.685 309.106 254.685 311.636ZM267.521 301.664C268.803 301.664 269.443 302.59 269.443 304.444C269.443 304.929 269.244 306.959 268.847 310.533C268.449 314.107 268.25 317.144 268.25 319.645C268.25 322.175 268.081 324.072 267.742 325.337C267.02 328.058 265.349 329.985 262.727 331.117C261.357 331.706 259.84 332 258.176 332C256.526 332 255.053 331.706 253.757 331.117C252.475 330.529 251.835 329.823 251.835 328.999C251.835 328.058 252.468 327.587 253.735 327.587C253.985 327.587 254.663 327.683 255.767 327.874C256.872 328.065 257.667 328.161 258.153 328.161C259.936 328.161 261.394 327.602 262.528 326.484C263.677 325.381 264.251 323.962 264.251 322.226C264.251 321.314 263.913 320.858 263.235 320.858C263.117 320.858 262.837 320.902 262.395 320.991C261.143 321.241 260.002 321.366 258.971 321.366C256.349 321.366 254.375 320.572 253.05 318.983C252.431 318.248 251.901 317.269 251.459 316.049C251.032 314.813 250.818 313.511 250.818 312.144V311.526C250.818 310.084 251.054 308.665 251.525 307.268C252.011 305.856 252.652 304.672 253.447 303.716C254.243 302.745 255.281 301.987 256.563 301.443C257.844 300.899 259.155 300.627 260.495 300.627H261.07C261.821 300.627 262.786 300.833 263.964 301.245C265.157 301.642 265.886 301.84 266.151 301.84C266.74 301.723 267.197 301.664 267.521 301.664Z" fill="white"/>
<path d="M279.209 311.636V312.32C279.209 314.291 279.584 315.835 280.335 316.953C281.087 318.071 282.029 318.63 283.163 318.63H283.937C285.572 318.63 286.846 317.946 287.759 316.578C288.672 315.196 289.129 313.261 289.129 310.776C289.158 310.482 289.173 310.254 289.173 310.092L289.217 309.187V307.863C289.188 307.569 289.173 307.349 289.173 307.202C289.173 306.04 288.893 305.128 288.333 304.466C287.774 303.804 286.949 303.473 285.859 303.473H285.24C283.502 303.473 282.059 304.201 280.91 305.657C279.776 307.113 279.209 309.106 279.209 311.636ZM292.045 301.664C293.327 301.664 293.967 302.59 293.967 304.444C293.967 304.929 293.768 306.959 293.371 310.533C292.973 314.107 292.774 317.144 292.774 319.645C292.774 322.175 292.605 324.072 292.266 325.337C291.544 328.058 289.873 329.985 287.251 331.117C285.881 331.706 284.364 332 282.699 332C281.05 332 279.577 331.706 278.281 331.117C276.999 330.529 276.359 329.823 276.359 328.999C276.359 328.058 276.992 327.587 278.259 327.587C278.509 327.587 279.187 327.683 280.291 327.874C281.396 328.065 282.191 328.161 282.677 328.161C284.46 328.161 285.918 327.602 287.052 326.484C288.201 325.381 288.775 323.962 288.775 322.226C288.775 321.314 288.436 320.858 287.759 320.858C287.641 320.858 287.361 320.902 286.919 320.991C285.667 321.241 284.526 321.366 283.495 321.366C280.873 321.366 278.899 320.572 277.574 318.983C276.955 318.248 276.425 317.269 275.983 316.049C275.556 314.813 275.342 313.511 275.342 312.144V311.526C275.342 310.084 275.578 308.665 276.049 307.268C276.535 305.856 277.176 304.672 277.971 303.716C278.767 302.745 279.805 301.987 281.087 301.443C282.368 300.899 283.679 300.627 285.019 300.627H285.594C286.345 300.627 287.31 300.833 288.488 301.245C289.681 301.642 290.41 301.84 290.675 301.84C291.264 301.723 291.721 301.664 292.045 301.664Z" fill="white"/>
<path d="M303.777 308.437V308.79C303.777 309.231 304.182 309.452 304.992 309.452H305.522L305.655 309.43L306.737 309.342C307.871 309.18 308.608 309.099 308.947 309.099C310.552 309.099 311.76 308.797 312.57 308.194C312.953 307.9 313.145 307.378 313.145 306.628V306.385C313.145 305.282 312.776 304.407 312.04 303.76C311.318 303.113 310.449 302.789 309.433 302.789H309.278L309.146 302.811C307.717 302.811 306.465 303.414 305.39 304.62C304.314 305.826 303.777 307.099 303.777 308.437ZM308.593 322.138H308.107C305.294 322.138 303.055 321.248 301.391 319.468C299.726 317.674 298.894 315.284 298.894 312.298V311.327C298.894 309.901 299.174 308.452 299.734 306.981C300.868 304.039 302.716 302.009 305.279 300.892C306.634 300.289 308.011 299.987 309.411 299.987H310.361C312.29 299.987 313.918 300.634 315.243 301.929C316.584 303.208 317.254 304.863 317.254 306.893V307.334C317.254 308.775 316.679 309.798 315.531 310.401C314.735 310.827 312.879 311.254 309.963 311.68C307.047 312.107 305.456 312.364 305.191 312.452C304.307 312.761 303.865 313.35 303.865 314.217C303.865 315.424 304.381 316.453 305.412 317.306C306.443 318.159 307.827 318.586 309.565 318.586C310.375 318.586 311.48 318.365 312.879 317.924C314.279 317.483 315.089 317.262 315.31 317.262C316.061 317.262 316.436 317.586 316.436 318.233C316.436 319.101 315.59 319.968 313.896 320.836C312.202 321.704 310.434 322.138 308.593 322.138Z" fill="white"/>
<path d="M323.462 310.379V308.68C323.462 306.635 323.352 305.142 323.131 304.201C322.91 303.245 322.799 302.576 322.799 302.193C322.799 301.296 323.455 300.847 324.766 300.847C326.077 300.847 327.027 301.09 327.616 301.576C327.778 301.708 327.984 301.965 328.234 302.348C328.5 302.73 328.735 302.921 328.941 302.921C328.986 302.921 329.626 302.546 330.864 301.796C332.101 301.046 333.161 300.671 334.045 300.671H334.376C335.098 300.671 335.673 300.847 336.1 301.2C336.527 301.539 336.741 301.958 336.741 302.458V302.745C336.741 303.348 336.527 303.782 336.1 304.047C335.687 304.311 335.025 304.444 334.111 304.444C332.035 304.444 330.517 305.172 329.56 306.628C328.617 308.084 328.146 310.658 328.146 314.35C328.146 314.879 328.234 315.696 328.411 316.799C328.603 317.902 328.698 318.733 328.698 319.292C328.698 319.851 328.396 320.388 327.793 320.902C327.189 321.417 326.423 321.675 325.495 321.675H324.744C323.934 321.675 323.308 321.483 322.866 321.101C322.439 320.704 322.225 320.226 322.225 319.667C322.225 319.093 322.328 318.512 322.534 317.924C323.094 316.335 323.374 314.585 323.374 312.673C323.433 311.614 323.462 310.849 323.462 310.379Z" fill="white"/>
<path d="M364.269 319.49C364.269 320.079 363.908 320.608 363.187 321.079C362.48 321.535 361.515 321.763 360.292 321.763C358.009 321.763 356.404 320.917 355.476 319.226C354.901 318.167 354.614 315.688 354.614 311.791C354.614 307.893 354.548 305.628 354.415 304.995C354.283 304.363 353.915 303.745 353.311 303.142C352.707 302.539 352.405 302.076 352.405 301.752C352.405 301.634 353.119 300.862 354.548 299.435C354.857 299.127 355.167 298.443 355.476 297.384C355.8 296.325 356.028 295.626 356.161 295.288C356.603 294.229 357.184 293.699 357.906 293.699H358.26C358.893 293.699 359.342 293.942 359.607 294.427C359.711 294.618 359.865 295.31 360.071 296.501C360.292 297.678 360.543 298.435 360.823 298.774C361.102 299.112 361.802 299.487 362.921 299.899C364.056 300.296 364.623 300.722 364.623 301.178V301.421C364.623 302.009 363.975 302.51 362.678 302.921C361.397 303.318 360.572 303.958 360.204 304.841C359.482 306.621 359.121 309.518 359.121 313.534C359.121 315.416 359.445 316.696 360.093 317.372C360.491 317.784 361.287 318.071 362.48 318.233C363.673 318.395 364.269 318.814 364.269 319.49Z" fill="white"/>
<path d="M376.31 319.071H376.885C378.092 319.071 379.153 318.667 380.066 317.858C380.994 317.034 381.458 316.085 381.458 315.012L381.502 314.725V314.438L381.546 313.754V312.497C381.546 311.643 381.112 311.217 380.243 311.217H379.249L379.094 311.239L378.232 311.305C377.82 311.364 377.525 311.393 377.349 311.393C376.156 311.393 375.051 311.842 374.035 312.739C373.328 313.372 372.974 314.269 372.974 315.431V315.872C372.974 316.858 373.291 317.637 373.924 318.211C374.572 318.784 375.368 319.071 376.31 319.071ZM371.383 304.973C370.396 304.973 369.903 304.341 369.903 303.076C369.903 302.134 370.698 301.318 372.289 300.627C373.895 299.921 375.559 299.568 377.282 299.568H378.387C379.875 299.568 381.186 299.847 382.32 300.406C383.454 300.95 384.315 301.693 384.905 302.635C385.509 303.576 385.877 304.804 386.009 306.319C386.039 306.672 386.054 308.386 386.054 311.46C386.054 314.534 386.09 316.306 386.164 316.777C386.252 317.233 386.488 317.792 386.871 318.453C387.269 319.115 387.467 319.66 387.467 320.086C387.467 320.513 387.261 320.88 386.849 321.189C386.451 321.483 385.869 321.631 385.103 321.631C384.338 321.631 383.505 321.447 382.607 321.079C381.708 320.697 381.053 320.505 380.641 320.505C380.596 320.505 379.86 320.77 378.431 321.3C377.002 321.814 375.795 322.072 374.808 322.072H374.322C372.672 322.072 371.266 321.55 370.102 320.505C368.953 319.461 368.379 317.975 368.379 316.049C368.379 314.122 369.012 312.622 370.279 311.548C371.545 310.459 373.085 309.717 374.896 309.32C375.441 309.202 376.347 309.047 377.614 308.856C378.88 308.665 379.742 308.466 380.199 308.261C380.994 307.893 381.392 307.202 381.392 306.187C381.392 305.157 381.053 304.355 380.375 303.782C379.698 303.193 378.888 302.899 377.945 302.899C377.017 302.899 375.795 303.245 374.278 303.936C372.76 304.628 371.796 304.973 371.383 304.973Z" fill="white"/>
<path d="M401.431 319.049H402.094C403.699 319.049 405.047 318.255 406.137 316.666C407.241 315.063 407.794 312.886 407.794 310.136V309.43L407.772 309.187L407.749 308.724C407.735 308.562 407.727 308.408 407.727 308.261C407.727 306.834 407.33 305.584 406.534 304.51C405.739 303.421 404.767 302.877 403.618 302.877H402.977C402.256 302.877 401.46 303.127 400.591 303.627C399.737 304.127 399.133 304.716 398.779 305.392C397.999 306.863 397.608 309.187 397.608 312.364V314.394C397.653 314.835 397.675 315.203 397.675 315.497C397.675 316.556 397.999 317.417 398.647 318.078C399.31 318.726 400.238 319.049 401.431 319.049ZM398.536 299.656C398.536 300.215 398.625 300.634 398.802 300.914C398.993 301.193 399.486 301.333 400.282 301.333C400.297 301.333 400.775 301.223 401.718 301.002C402.675 300.781 403.662 300.671 404.678 300.671C406.873 300.671 408.707 301.539 410.18 303.274C411.653 305.01 412.389 307.128 412.389 309.628V311.217C412.389 312.452 412.146 313.762 411.66 315.144C411.159 316.527 410.452 317.725 409.539 318.74C407.668 320.799 405.363 321.829 402.624 321.829H402.138C401.372 321.829 400.385 321.682 399.177 321.388C397.969 321.094 397.181 320.947 396.813 320.947L395.333 321.079C393.816 321.079 393.057 320.321 393.057 318.807V317.902C393.057 317.005 393.234 313.732 393.587 308.084C393.956 302.436 394.14 298.832 394.14 297.273C394.14 295.714 394.015 294.42 393.764 293.39C393.514 292.361 393.389 291.802 393.389 291.714C393.389 290.478 394.088 289.86 395.487 289.86H395.929C397.122 289.86 397.881 290.147 398.205 290.721C398.529 291.28 398.691 292.324 398.691 293.854L398.581 297.362L398.536 298.354V299.656Z" fill="white"/>
<path d="M418.288 291.184C418.288 290.11 419.297 289.573 421.315 289.573H421.713C422.552 289.573 423.127 289.779 423.436 290.191C423.745 290.588 423.9 291.368 423.9 292.53L423.723 295.817C423.679 296.332 423.657 296.611 423.657 296.656L423.613 297.494C423.583 298.038 423.554 298.59 423.524 299.149L423.458 299.987L423.392 301.245C423.156 305.716 423.038 309.018 423.038 311.151C423.038 313.269 423.134 314.791 423.326 315.718C423.517 316.644 423.819 317.431 424.231 318.078C424.644 318.726 424.85 319.152 424.85 319.358V319.623C424.85 320.27 424.526 320.785 423.878 321.167C423.244 321.55 422.383 321.741 421.293 321.741H420.144C419.466 321.741 418.87 321.55 418.354 321.167C417.854 320.77 417.603 320.321 417.603 319.821V319.226L417.736 318.299C417.913 317.019 418.016 316.063 418.045 315.431C418.089 314.784 418.156 313.894 418.244 312.761C418.332 311.614 418.472 309.18 418.664 305.459C418.87 301.723 418.973 299.715 418.973 299.435L419.061 297.781L419.106 296.148C419.106 294.589 418.966 293.479 418.686 292.817C418.421 292.14 418.288 291.596 418.288 291.184Z" fill="white"/>
<path d="M433.997 308.437V308.79C433.997 309.231 434.402 309.452 435.212 309.452H435.742L435.875 309.43L436.957 309.342C438.091 309.18 438.828 309.099 439.167 309.099C440.772 309.099 441.98 308.797 442.79 308.194C443.173 307.9 443.364 307.378 443.364 306.628V306.385C443.364 305.282 442.996 304.407 442.26 303.76C441.538 303.113 440.669 302.789 439.653 302.789H439.498L439.365 302.811C437.937 302.811 436.685 303.414 435.61 304.62C434.534 305.826 433.997 307.099 433.997 308.437ZM438.813 322.138H438.327C435.514 322.138 433.275 321.248 431.611 319.468C429.946 317.674 429.114 315.284 429.114 312.298V311.327C429.114 309.901 429.394 308.452 429.954 306.981C431.088 304.039 432.936 302.009 435.499 300.892C436.854 300.289 438.231 299.987 439.631 299.987H440.581C442.51 299.987 444.138 300.634 445.463 301.929C446.804 303.208 447.474 304.863 447.474 306.893V307.334C447.474 308.775 446.899 309.798 445.751 310.401C444.955 310.827 443.099 311.254 440.183 311.68C437.267 312.107 435.676 312.364 435.411 312.452C434.527 312.761 434.085 313.35 434.085 314.217C434.085 315.424 434.601 316.453 435.632 317.306C436.663 318.159 438.047 318.586 439.785 318.586C440.595 318.586 441.7 318.365 443.099 317.924C444.499 317.483 445.309 317.262 445.53 317.262C446.281 317.262 446.656 317.586 446.656 318.233C446.656 319.101 445.809 319.968 444.116 320.836C442.422 321.704 440.654 322.138 438.813 322.138Z" fill="white"/>
<path d="M484.967 319.204C484.967 320.292 484.017 320.836 482.117 320.836C481.041 320.836 480.32 320.579 479.951 320.064C479.775 319.814 479.686 319.226 479.686 318.299L479.62 316.887C479.517 315.343 479.465 313.791 479.465 312.232C479.465 308.864 479.171 306.606 478.582 305.459C478.007 304.297 477.035 303.716 475.665 303.716C474.752 303.716 473.905 303.988 473.125 304.532C472.359 305.076 471.769 305.834 471.357 306.804C470.503 308.79 470.076 312.46 470.076 317.814C470.076 319.034 469.84 319.895 469.369 320.395C468.912 320.895 468.323 321.145 467.601 321.145H467.159C465.51 321.145 464.685 320.491 464.685 319.182V318.652C464.685 318.49 464.773 318.137 464.95 317.593L465.303 316.578C465.657 315.387 465.834 312.835 465.834 308.922L465.944 302.37C465.944 301.531 466.401 301.112 467.314 301.112C468.227 301.112 469.126 301.414 470.009 302.017C470.908 302.62 471.475 302.921 471.711 302.921C471.961 302.921 472.395 302.752 473.014 302.414C475.091 301.281 476.755 300.715 478.007 300.715H478.582C480.835 300.715 482.419 301.73 483.332 303.76C483.774 304.716 483.995 306.775 483.995 309.937V310.092C483.995 310.356 483.987 310.621 483.973 310.886C483.973 311.607 483.973 311.982 483.973 312.011C483.973 312.291 483.973 312.563 483.973 312.828C483.973 313.033 483.973 313.232 483.973 313.423C483.973 314.556 484.009 315.328 484.083 315.74C484.186 316.299 484.356 316.88 484.591 317.483C484.842 318.145 484.967 318.718 484.967 319.204Z" fill="white"/>
<path d="M493.959 312.541C493.959 314.467 494.401 316.071 495.285 317.35C496.168 318.63 497.251 319.27 498.532 319.27H499.195C500.712 319.27 501.994 318.505 503.039 316.975C504.1 315.446 504.63 313.409 504.63 310.864V309.408C504.63 307.437 504.196 305.826 503.327 304.576C502.472 303.311 501.368 302.679 500.013 302.679H499.571C497.995 302.679 496.669 303.458 495.594 305.017C494.533 306.576 494.003 308.437 494.003 310.599L493.959 311.107V312.541ZM498.952 322.27H498.245C495.667 322.27 493.569 321.373 491.948 319.579C490.328 317.784 489.518 315.24 489.518 311.945L489.54 311.57C489.54 307.952 490.498 305.098 492.412 303.01C493.414 301.906 494.555 301.098 495.837 300.583C497.133 300.053 498.363 299.788 499.526 299.788H500.609C501.905 299.788 503.15 300.075 504.343 300.649C507.76 302.296 509.469 305.4 509.469 309.959V310.312C509.454 311.798 509.211 313.306 508.74 314.835C507.797 317.85 505.985 319.983 503.305 321.233C501.817 321.925 500.366 322.27 498.952 322.27Z" fill="white"/>
<path d="M525.509 319.49C525.509 320.079 525.148 320.608 524.426 321.079C523.719 321.535 522.754 321.763 521.532 321.763C519.249 321.763 517.643 320.917 516.715 319.226C516.141 318.167 515.854 315.688 515.854 311.791C515.854 307.893 515.787 305.628 515.655 304.995C515.522 304.363 515.154 303.745 514.55 303.142C513.946 302.539 513.644 302.076 513.644 301.752C513.644 301.634 514.359 300.862 515.787 299.435C516.097 299.127 516.406 298.443 516.715 297.384C517.039 296.325 517.268 295.626 517.4 295.288C517.842 294.229 518.424 293.699 519.146 293.699H519.499C520.133 293.699 520.582 293.942 520.847 294.427C520.95 294.618 521.105 295.31 521.311 296.501C521.532 297.678 521.782 298.435 522.062 298.774C522.342 299.112 523.042 299.487 524.161 299.899C525.295 300.296 525.862 300.722 525.862 301.178V301.421C525.862 302.009 525.214 302.51 523.918 302.921C522.636 303.318 521.812 303.958 521.443 304.841C520.722 306.621 520.361 309.518 520.361 313.534C520.361 315.416 520.685 316.696 521.333 317.372C521.731 317.784 522.526 318.071 523.719 318.233C524.912 318.395 525.509 318.814 525.509 319.49Z" fill="white"/>
<path d="M550.055 319.071H550.629C551.837 319.071 552.897 318.667 553.811 317.858C554.739 317.034 555.202 316.085 555.202 315.012L555.247 314.725V314.438L555.291 313.754V312.497C555.291 311.643 554.856 311.217 553.987 311.217H552.993L552.838 311.239L551.977 311.305C551.564 311.364 551.27 311.393 551.093 311.393C549.9 311.393 548.795 311.842 547.779 312.739C547.072 313.372 546.719 314.269 546.719 315.431V315.872C546.719 316.858 547.035 317.637 547.669 318.211C548.317 318.784 549.112 319.071 550.055 319.071ZM545.128 304.973C544.141 304.973 543.647 304.341 543.647 303.076C543.647 302.134 544.443 301.318 546.034 300.627C547.639 299.921 549.303 299.568 551.027 299.568H552.131C553.619 299.568 554.93 299.847 556.064 300.406C557.198 300.95 558.06 301.693 558.649 302.635C559.253 303.576 559.621 304.804 559.754 306.319C559.783 306.672 559.798 308.386 559.798 311.46C559.798 314.534 559.835 316.306 559.908 316.777C559.997 317.233 560.232 317.792 560.615 318.453C561.013 319.115 561.212 319.66 561.212 320.086C561.212 320.513 561.006 320.88 560.593 321.189C560.196 321.483 559.614 321.631 558.848 321.631C558.082 321.631 557.25 321.447 556.351 321.079C555.453 320.697 554.797 320.505 554.385 320.505C554.341 320.505 553.604 320.77 552.176 321.3C550.747 321.814 549.539 322.072 548.552 322.072H548.066C546.417 322.072 545.01 321.55 543.846 320.505C542.697 319.461 542.123 317.975 542.123 316.049C542.123 314.122 542.756 312.622 544.023 311.548C545.29 310.459 546.829 309.717 548.641 309.32C549.186 309.202 550.091 309.047 551.358 308.856C552.625 308.665 553.487 308.466 553.943 308.261C554.739 307.893 555.136 307.202 555.136 306.187C555.136 305.157 554.797 304.355 554.12 303.782C553.442 303.193 552.632 302.899 551.69 302.899C550.762 302.899 549.539 303.245 548.022 303.936C546.505 304.628 545.54 304.973 545.128 304.973Z" fill="white"/>
<path d="M590.331 319.49C590.331 320.079 589.971 320.608 589.249 321.079C588.542 321.535 587.577 321.763 586.354 321.763C584.071 321.763 582.466 320.917 581.538 319.226C580.964 318.167 580.676 315.688 580.676 311.791C580.676 307.893 580.61 305.628 580.478 304.995C580.345 304.363 579.977 303.745 579.373 303.142C578.769 302.539 578.467 302.076 578.467 301.752C578.467 301.634 579.181 300.862 580.61 299.435C580.919 299.127 581.229 298.443 581.538 297.384C581.862 296.325 582.09 295.626 582.223 295.288C582.665 294.229 583.247 293.699 583.968 293.699H584.322C584.955 293.699 585.404 293.942 585.67 294.427C585.773 294.618 585.927 295.31 586.134 296.501C586.354 297.678 586.605 298.435 586.885 298.774C587.165 299.112 587.864 299.487 588.984 299.899C590.118 300.296 590.685 300.722 590.685 301.178V301.421C590.685 302.009 590.037 302.51 588.741 302.921C587.459 303.318 586.634 303.958 586.266 304.841C585.544 306.621 585.184 309.518 585.184 313.534C585.184 315.416 585.508 316.696 586.156 317.372C586.553 317.784 587.349 318.071 588.542 318.233C589.735 318.395 590.331 318.814 590.331 319.49Z" fill="white"/>
<path d="M602.372 319.071H602.947C604.155 319.071 605.215 318.667 606.128 317.858C607.056 317.034 607.52 316.085 607.52 315.012L607.564 314.725V314.438L607.609 313.754V312.497C607.609 311.643 607.174 311.217 606.305 311.217H605.311L605.156 311.239L604.295 311.305C603.882 311.364 603.588 311.393 603.411 311.393C602.218 311.393 601.113 311.842 600.097 312.739C599.39 313.372 599.036 314.269 599.036 315.431V315.872C599.036 316.858 599.353 317.637 599.986 318.211C600.634 318.784 601.43 319.071 602.372 319.071ZM597.445 304.973C596.459 304.973 595.965 304.341 595.965 303.076C595.965 302.134 596.761 301.318 598.351 300.627C599.957 299.921 601.621 299.568 603.344 299.568H604.449C605.937 299.568 607.248 299.847 608.382 300.406C609.516 300.95 610.378 301.693 610.967 302.635C611.571 303.576 611.939 304.804 612.071 306.319C612.101 306.672 612.116 308.386 612.116 311.46C612.116 314.534 612.153 316.306 612.226 316.777C612.315 317.233 612.55 317.792 612.933 318.453C613.331 319.115 613.53 319.66 613.53 320.086C613.53 320.513 613.323 320.88 612.911 321.189C612.513 321.483 611.932 321.631 611.166 321.631C610.4 321.631 609.568 321.447 608.669 321.079C607.771 320.697 607.115 320.505 606.703 320.505C606.659 320.505 605.922 320.77 604.493 321.3C603.065 321.814 601.857 322.072 600.87 322.072H600.384C598.734 322.072 597.328 321.55 596.164 320.505C595.015 319.461 594.441 317.975 594.441 316.049C594.441 314.122 595.074 312.622 596.341 311.548C597.608 310.459 599.147 309.717 600.958 309.32C601.503 309.202 602.409 309.047 603.676 308.856C604.943 308.665 605.804 308.466 606.261 308.261C607.056 307.893 607.454 307.202 607.454 306.187C607.454 305.157 607.115 304.355 606.438 303.782C605.76 303.193 604.95 302.899 604.007 302.899C603.079 302.899 601.857 303.245 600.34 303.936C598.823 304.628 597.858 304.973 597.445 304.973Z" fill="white"/>
<path d="M619.915 291.184C619.915 290.11 620.924 289.573 622.942 289.573H623.339C624.179 289.573 624.753 289.779 625.063 290.191C625.372 290.588 625.527 291.368 625.527 292.53L625.35 295.817C625.306 296.332 625.284 296.611 625.284 296.656L625.239 297.494C625.21 298.038 625.18 298.59 625.151 299.149L625.085 299.987L625.018 301.245C624.783 305.716 624.665 309.018 624.665 311.151C624.665 313.269 624.761 314.791 624.952 315.718C625.144 316.644 625.445 317.431 625.858 318.078C626.27 318.726 626.477 319.152 626.477 319.358V319.623C626.477 320.27 626.153 320.785 625.504 321.167C624.871 321.55 624.009 321.741 622.919 321.741H621.771C621.093 321.741 620.497 321.55 619.981 321.167C619.48 320.77 619.23 320.321 619.23 319.821V319.226L619.362 318.299C619.539 317.019 619.642 316.063 619.672 315.431C619.716 314.784 619.782 313.894 619.871 312.761C619.959 311.614 620.099 309.18 620.29 305.459C620.497 301.723 620.6 299.715 620.6 299.435L620.688 297.781L620.732 296.148C620.732 294.589 620.592 293.479 620.312 292.817C620.047 292.14 619.915 291.596 619.915 291.184Z" fill="white"/>
<path d="M632.906 291.184C632.906 290.11 633.915 289.573 635.933 289.573H636.33C637.17 289.573 637.744 289.779 638.054 290.191C638.363 290.588 638.518 291.368 638.518 292.53L638.341 295.817C638.297 296.332 638.275 296.611 638.275 296.656L638.23 297.494C638.201 298.038 638.171 298.59 638.142 299.149L638.076 299.987L638.009 301.245C637.774 305.716 637.656 309.018 637.656 311.151C637.656 313.269 637.752 314.791 637.943 315.718C638.135 316.644 638.437 317.431 638.849 318.078C639.261 318.726 639.468 319.152 639.468 319.358V319.623C639.468 320.27 639.144 320.785 638.495 321.167C637.862 321.55 637 321.741 635.911 321.741H634.762C634.084 321.741 633.488 321.55 632.972 321.167C632.471 320.77 632.221 320.321 632.221 319.821V319.226L632.353 318.299C632.53 317.019 632.633 316.063 632.663 315.431C632.707 314.784 632.773 313.894 632.862 312.761C632.95 311.614 633.09 309.18 633.281 305.459C633.488 301.723 633.591 299.715 633.591 299.435L633.679 297.781L633.723 296.148C633.723 294.589 633.583 293.479 633.303 292.817C633.038 292.14 632.906 291.596 632.906 291.184Z" fill="white"/>
<path d="M648.614 308.437V308.79C648.614 309.231 649.019 309.452 649.83 309.452H650.36L650.492 309.43L651.575 309.342C652.709 309.18 653.446 309.099 653.784 309.099C655.39 309.099 656.598 308.797 657.408 308.194C657.791 307.9 657.982 307.378 657.982 306.628V306.385C657.982 305.282 657.614 304.407 656.877 303.76C656.156 303.113 655.287 302.789 654.27 302.789H654.116L653.983 302.811C652.554 302.811 651.302 303.414 650.227 304.62C649.152 305.826 648.614 307.099 648.614 308.437ZM653.431 322.138H652.945C650.131 322.138 647.893 321.248 646.228 319.468C644.564 317.674 643.732 315.284 643.732 312.298V311.327C643.732 309.901 644.012 308.452 644.571 306.981C645.705 304.039 647.554 302.009 650.117 300.892C651.472 300.289 652.849 299.987 654.248 299.987H655.198C657.128 299.987 658.755 300.634 660.081 301.929C661.421 303.208 662.091 304.863 662.091 306.893V307.334C662.091 308.775 661.517 309.798 660.368 310.401C659.573 310.827 657.717 311.254 654.801 311.68C651.884 312.107 650.294 312.364 650.028 312.452C649.145 312.761 648.703 313.35 648.703 314.217C648.703 315.424 649.218 316.453 650.249 317.306C651.28 318.159 652.665 318.586 654.403 318.586C655.213 318.586 656.318 318.365 657.717 317.924C659.116 317.483 659.926 317.262 660.147 317.262C660.898 317.262 661.274 317.586 661.274 318.233C661.274 319.101 660.427 319.968 658.733 320.836C657.039 321.704 655.272 322.138 653.431 322.138Z" fill="white"/>
<path d="M668.3 310.379V308.68C668.3 306.635 668.189 305.142 667.968 304.201C667.747 303.245 667.637 302.576 667.637 302.193C667.637 301.296 668.292 300.847 669.603 300.847C670.914 300.847 671.864 301.09 672.453 301.576C672.615 301.708 672.822 301.965 673.072 302.348C673.337 302.73 673.573 302.921 673.779 302.921C673.823 302.921 674.464 302.546 675.701 301.796C676.938 301.046 677.999 300.671 678.883 300.671H679.214C679.936 300.671 680.51 300.847 680.937 301.2C681.365 301.539 681.578 301.958 681.578 302.458V302.745C681.578 303.348 681.365 303.782 680.937 304.047C680.525 304.311 679.862 304.444 678.949 304.444C676.872 304.444 675.355 305.172 674.398 306.628C673.455 308.084 672.984 310.658 672.984 314.35C672.984 314.879 673.072 315.696 673.249 316.799C673.44 317.902 673.536 318.733 673.536 319.292C673.536 319.851 673.234 320.388 672.63 320.902C672.026 321.417 671.26 321.675 670.332 321.675H669.581C668.771 321.675 668.145 321.483 667.703 321.101C667.276 320.704 667.063 320.226 667.063 319.667C667.063 319.093 667.166 318.512 667.372 317.924C667.932 316.335 668.211 314.585 668.211 312.673C668.27 311.614 668.3 310.849 668.3 310.379Z" fill="white"/>
<path d="M701.043 323.462H700.534C699.798 323.462 699.172 323.248 698.656 322.822C698.156 322.395 697.905 321.888 697.905 321.3C697.905 320.711 698.082 319.961 698.436 319.049C698.804 318.123 699.069 316.997 699.231 315.674C699.408 314.335 699.496 312.379 699.496 309.805C699.496 307.231 699.371 305.591 699.12 304.885C699.076 304.767 698.87 304.378 698.502 303.716C698.134 303.039 697.949 302.465 697.949 301.995C697.949 301.524 698.193 300.921 698.679 300.186C699.179 299.45 699.511 298.906 699.673 298.553C701.661 294.361 702.7 292.214 702.788 292.111C704.32 290.331 706.389 289.441 708.996 289.441C710.204 289.441 711.132 289.647 711.78 290.059C712.428 290.471 712.752 291.007 712.752 291.669C712.752 292.317 712.369 292.787 711.603 293.081C711.397 293.155 711.125 293.192 710.786 293.192C710.536 293.177 710.248 293.155 709.924 293.126C709.158 293.037 708.599 292.993 708.245 292.993C707.288 292.993 706.507 293.405 705.903 294.229C705.314 295.038 705.019 295.972 705.019 297.031C705.019 298.09 705.233 298.862 705.66 299.347C705.793 299.494 706.419 299.862 707.538 300.45C708.672 301.024 709.239 301.605 709.239 302.193C709.239 302.517 708.606 303.017 707.339 303.694C706.441 304.164 705.778 305.003 705.351 306.209C704.423 308.797 703.959 312.202 703.959 316.424L704.379 320.152C704.379 321.167 704.077 321.969 703.473 322.557C702.884 323.16 702.074 323.462 701.043 323.462Z" fill="white"/>
<path d="M717.812 308.437V308.79C717.812 309.231 718.217 309.452 719.027 309.452H719.557L719.69 309.43L720.772 309.342C721.906 309.18 722.643 309.099 722.982 309.099C724.587 309.099 725.795 308.797 726.605 308.194C726.988 307.9 727.179 307.378 727.179 306.628V306.385C727.179 305.282 726.811 304.407 726.075 303.76C725.353 303.113 724.484 302.789 723.468 302.789H723.313L723.18 302.811C721.752 302.811 720.5 303.414 719.424 304.62C718.349 305.826 717.812 307.099 717.812 308.437ZM722.628 322.138H722.142C719.329 322.138 717.09 321.248 715.426 319.468C713.761 317.674 712.929 315.284 712.929 312.298V311.327C712.929 309.901 713.209 308.452 713.769 306.981C714.903 304.039 716.751 302.009 719.314 300.892C720.669 300.289 722.046 299.987 723.446 299.987H724.396C726.325 299.987 727.953 300.634 729.278 301.929C730.619 303.208 731.289 304.863 731.289 306.893V307.334C731.289 308.775 730.714 309.798 729.565 310.401C728.77 310.827 726.914 311.254 723.998 311.68C721.082 312.107 719.491 312.364 719.226 312.452C718.342 312.761 717.9 313.35 717.9 314.217C717.9 315.424 718.416 316.453 719.447 317.306C720.478 318.159 721.862 318.586 723.6 318.586C724.41 318.586 725.515 318.365 726.914 317.924C728.314 317.483 729.124 317.262 729.345 317.262C730.096 317.262 730.471 317.586 730.471 318.233C730.471 319.101 729.624 319.968 727.931 320.836C726.237 321.704 724.469 322.138 722.628 322.138Z" fill="white"/>
<path d="M756.365 319.204C756.365 320.292 755.415 320.836 753.515 320.836C752.44 320.836 751.718 320.579 751.35 320.064C751.173 319.814 751.085 319.226 751.085 318.299L751.018 316.887C750.915 315.343 750.864 313.791 750.864 312.232C750.864 308.864 750.569 306.606 749.98 305.459C749.406 304.297 748.433 303.716 747.064 303.716C746.15 303.716 745.304 303.988 744.523 304.532C743.757 305.076 743.168 305.834 742.755 306.804C741.901 308.79 741.474 312.46 741.474 317.814C741.474 319.034 741.238 319.895 740.767 320.395C740.31 320.895 739.721 321.145 738.999 321.145H738.558C736.908 321.145 736.083 320.491 736.083 319.182V318.652C736.083 318.49 736.172 318.137 736.348 317.593L736.702 316.578C737.055 315.387 737.232 312.835 737.232 308.922L737.342 302.37C737.342 301.531 737.799 301.112 738.712 301.112C739.625 301.112 740.524 301.414 741.408 302.017C742.306 302.62 742.873 302.921 743.109 302.921C743.359 302.921 743.794 302.752 744.412 302.414C746.489 301.281 748.154 300.715 749.406 300.715H749.98C752.234 300.715 753.817 301.73 754.73 303.76C755.172 304.716 755.393 306.775 755.393 309.937V310.092C755.393 310.356 755.386 310.621 755.371 310.886C755.371 311.607 755.371 311.982 755.371 312.011C755.371 312.291 755.371 312.563 755.371 312.828C755.371 313.033 755.371 313.232 755.371 313.423C755.371 314.556 755.408 315.328 755.481 315.74C755.584 316.299 755.754 316.88 755.99 317.483C756.24 318.145 756.365 318.718 756.365 319.204Z" fill="white"/>
<path d="M760.806 312.673V311.658C760.806 309.805 761.093 308.165 761.668 306.738C762.772 303.973 764.466 302.061 766.749 301.002C768.237 300.296 769.776 299.943 771.367 299.943H771.853C773.605 299.943 775.056 300.289 776.205 300.98C777.354 301.671 777.928 302.517 777.928 303.517C777.928 304.679 777.369 305.26 776.249 305.26C776.043 305.26 775.321 304.936 774.084 304.289C772.847 303.657 771.831 303.341 771.035 303.341C771.021 303.341 771.006 303.341 770.991 303.341C769.253 303.341 767.891 304.091 766.904 305.591C765.932 307.091 765.446 309.047 765.446 311.46C765.446 313.872 765.961 315.659 766.992 316.821C768.038 317.983 769.489 318.564 771.345 318.564C772.11 318.564 773.164 318.351 774.504 317.924C775.844 317.483 776.662 317.262 776.956 317.262C777.56 317.262 777.862 317.578 777.862 318.211C777.862 319.064 777.015 319.924 775.321 320.792C773.628 321.66 771.963 322.094 770.328 322.094C765.954 322.094 763.059 320.373 761.645 316.931C761.086 315.563 760.806 314.144 760.806 312.673Z" fill="white"/>
<path d="M786.523 308.437V308.79C786.523 309.231 786.928 309.452 787.738 309.452H788.268L788.401 309.43L789.483 309.342C790.618 309.18 791.354 309.099 791.693 309.099C793.298 309.099 794.506 308.797 795.316 308.194C795.699 307.9 795.891 307.378 795.891 306.628V306.385C795.891 305.282 795.522 304.407 794.786 303.76C794.064 303.113 793.195 302.789 792.179 302.789H792.024L791.892 302.811C790.463 302.811 789.211 303.414 788.136 304.62C787.06 305.826 786.523 307.099 786.523 308.437ZM791.339 322.138H790.853C788.04 322.138 785.801 321.248 784.137 319.468C782.472 317.674 781.64 315.284 781.64 312.298V311.327C781.64 309.901 781.92 308.452 782.48 306.981C783.614 304.039 785.462 302.009 788.025 300.892C789.38 300.289 790.758 299.987 792.157 299.987H793.107C795.036 299.987 796.664 300.634 797.99 301.929C799.33 303.208 800 304.863 800 306.893V307.334C800 308.775 799.426 309.798 798.277 310.401C797.481 310.827 795.625 311.254 792.709 311.68C789.793 312.107 788.202 312.364 787.937 312.452C787.053 312.761 786.611 313.35 786.611 314.217C786.611 315.424 787.127 316.453 788.158 317.306C789.189 318.159 790.573 318.586 792.311 318.586C793.122 318.586 794.226 318.365 795.625 317.924C797.025 317.483 797.835 317.262 798.056 317.262C798.807 317.262 799.183 317.586 799.183 318.233C799.183 319.101 798.336 319.968 796.642 320.836C794.948 321.704 793.18 322.138 791.339 322.138Z" fill="white"/>
</svg>
