<svg width="364" height="500" viewBox="0 0 364 500" fill="none" xmlns="http://www.w3.org/2000/svg">
<path d="M174.582 70.2991C266.207 70.2993 340.913 147.211 340.913 242.625C340.913 338.04 266.207 414.95 174.582 414.951C82.9573 414.951 8.25015 338.04 8.25 242.625C8.25 147.211 82.9572 70.2991 174.582 70.2991Z" stroke="#D24B4F" stroke-width="15"/>
<path d="M120.298 201.96C117.229 201.193 118.764 199.659 117.996 197.357C121.066 198.124 119.531 199.659 120.298 201.96ZM22.8566 437.508C14.4168 429.068 31.2964 425.232 22.8566 437.508V437.508ZM117.996 31.6293C117.229 30.862 116.462 29.3275 116.462 26.2585C119.531 28.5602 117.996 29.3275 117.996 31.6293ZM114.16 46.9744L113.393 49.2762C111.091 48.5089 110.324 46.2071 114.16 46.9744ZM106.488 61.5523C101.117 61.5523 106.488 64.6213 106.488 61.5523V61.5523ZM362.751 0.939011C358.915 6.30979 365.821 18.5859 363.519 27.0257C361.217 35.4655 352.777 39.3018 347.406 48.5089C341.268 45.4399 345.105 50.8107 347.406 48.5089C349.708 66.1558 342.803 79.1992 331.294 92.2426C319.785 105.286 307.509 116.795 296 131.373C283.724 147.485 277.586 164.365 259.172 155.925C261.474 156.692 257.637 149.02 255.335 155.158C263.775 165.132 245.361 168.968 245.361 175.106C245.361 177.408 253.034 175.874 250.732 181.244C248.43 183.546 245.361 179.71 243.059 182.779C239.223 186.615 235.387 194.288 230.016 200.426C223.878 206.564 216.973 211.935 207.766 212.702C205.464 208.866 213.136 206.564 218.507 203.495C223.878 200.426 227.714 195.822 219.274 186.615C209.3 198.124 197.024 208.098 185.515 218.073C174.006 227.28 161.73 235.72 151.756 242.625C146.385 245.694 141.014 244.927 135.643 247.996L129.505 254.901C137.945 264.108 145.618 273.315 155.592 281.755C168.635 293.264 182.446 297.867 175.541 313.213C176.308 310.911 168.635 314.747 174.006 317.049C180.912 310.144 187.05 324.721 190.886 324.721C193.955 324.721 193.188 317.816 196.257 320.118C198.558 320.885 195.489 324.721 197.791 327.023C204.697 333.161 221.576 338.532 223.878 354.645C218.507 358.481 216.205 331.627 201.628 346.205C220.809 362.317 239.223 383.033 253.801 397.611C256.87 401.447 256.87 407.585 259.939 409.887C265.31 415.258 272.982 414.491 278.353 419.861C302.905 440.577 315.182 469.733 335.897 497.354L332.828 499.656C325.923 491.216 319.018 491.984 318.251 482.009C305.207 488.147 305.207 467.431 292.931 473.569C296.767 481.242 307.509 478.173 301.371 488.914C292.931 483.544 285.259 471.268 278.353 473.569C281.422 472.802 282.189 481.242 278.353 478.173C275.284 468.199 264.543 465.897 258.405 460.526C249.965 455.155 246.896 447.483 240.758 440.577C226.18 425.999 203.162 414.491 193.188 395.309C199.326 405.284 203.162 389.938 193.188 393.775C180.144 384.568 171.704 366.921 156.359 354.645C153.29 352.343 147.92 350.808 144.85 347.739C122.6 327.023 105.72 299.402 85.7717 287.126C82.7027 298.635 80.4009 308.609 77.3319 317.816C75.0301 323.954 71.1938 327.023 70.4265 332.394C68.1248 340.834 71.9611 347.739 69.6593 356.179C66.5903 374.593 60.4522 391.473 53.5469 409.12C46.6416 426.767 38.2017 444.414 31.2964 463.595L28.2274 462.828C32.0637 450.552 28.2274 445.181 36.6672 436.741C25.9256 430.603 42.038 412.956 32.0637 406.818C28.2274 416.025 35.1327 425.232 23.6239 425.232C23.6239 415.258 30.5292 399.145 26.6929 393.007C28.9947 396.076 21.3221 402.214 22.0893 396.844C28.9947 386.869 25.9256 375.36 28.2274 365.386C30.5292 353.877 34.3655 346.205 36.6672 334.696C39.7363 323.187 41.2708 310.144 43.5725 295.566L7.51146 302.471L6.7442 297.867C12.8823 295.566 16.7185 294.031 20.5548 291.729C24.3911 289.428 27.4601 288.66 33.5982 290.962C32.8309 282.522 38.2017 280.988 43.5725 278.686L48.1761 276.384C48.9433 272.548 50.4779 269.479 51.2451 267.177C47.4088 269.479 45.1071 271.013 42.8053 273.315C40.5035 275.617 38.969 274.85 33.5982 269.479C38.969 265.643 43.5725 263.341 48.9433 261.039C52.0124 259.505 54.3141 257.97 55.8487 256.436C55.8487 254.134 56.6159 254.901 56.6159 252.599C55.0814 252.599 53.5469 251.832 52.7796 251.065V250.298C52.7796 250.298 52.7796 249.53 53.5469 248.763H57.3832V247.996C55.0814 245.694 54.3141 244.16 55.0814 243.392C55.0814 242.625 60.4522 238.789 59.6849 238.021C57.3832 232.651 52.7796 232.651 50.4779 228.814C49.7106 226.513 52.7796 223.444 52.7796 221.142C52.7796 218.84 48.1761 218.073 51.2451 214.236C54.3141 218.073 61.9867 215.771 68.1248 215.771C70.4265 209.633 71.9611 202.728 72.7283 195.822C73.4956 190.451 71.9611 185.081 74.2628 179.71C82.7027 142.882 102.651 100.682 100.35 73.8284C104.186 73.8284 108.022 75.3629 108.789 66.9231C108.789 64.6213 109.557 62.3196 106.488 61.5523L108.022 56.9488C111.858 58.4833 114.16 57.716 114.927 54.647C111.091 53.1125 108.789 53.8797 108.022 56.9488C99.5823 52.3452 111.091 49.2762 113.393 49.2762C117.229 50.0434 116.462 47.7417 114.16 46.9744C121.833 45.4399 117.996 25.4912 123.367 23.9567C123.367 24.7239 123.367 24.7239 124.135 24.7239H126.436C127.204 25.4912 128.738 25.4912 129.505 25.4912C133.342 20.1204 131.04 15.5169 134.109 10.1461C136.411 7.84428 138.712 9.37882 141.014 7.07703C143.316 4.77529 141.014 -0.595529 146.385 1.70626C144.083 8.61158 153.29 16.2841 152.523 24.7239C152.523 33.1638 147.92 40.8364 145.618 50.8107C140.247 50.8107 144.85 53.8797 145.618 50.8107C157.894 79.1992 138.712 112.191 132.574 146.718C128.738 167.434 130.273 182.779 114.927 186.615C117.229 185.848 110.324 182.012 111.091 188.15C121.833 190.451 109.557 205.029 111.858 209.633C112.626 211.935 114.927 207.331 117.229 209.633L133.342 194.288C142.549 185.848 151.756 177.408 163.265 173.572C151.756 178.175 169.403 185.848 164.799 172.805C170.937 165.899 178.61 160.528 187.05 154.39C195.489 149.02 204.697 142.114 210.835 133.674C214.671 129.838 216.205 124.467 219.274 120.631C231.551 106.053 246.128 94.5444 260.706 81.501C273.75 68.4576 284.491 55.4142 288.328 42.3709C292.164 44.6726 296 47.7417 299.836 40.8364C300.604 38.5346 302.138 37.7673 299.836 35.4655L302.138 31.6293C307.509 37.0001 309.043 36.2328 311.345 33.9311C305.974 28.5602 304.44 29.3275 302.138 31.6293C293.698 23.1895 307.509 27.793 311.345 27.793C315.182 30.0948 314.414 28.5602 312.113 26.2585C322.087 28.5602 324.389 7.84428 330.527 10.1461L331.294 10.9133C332.061 11.6806 332.828 12.4479 333.596 12.4479L336.665 14.7496C342.036 11.6806 340.501 5.54254 345.872 2.47351C348.941 0.171718 352.777 4.77529 355.079 4.008C358.148 3.24075 357.381 -2.13002 362.751 0.939011ZM257.637 174.339C255.335 172.037 257.637 170.503 258.405 168.201C261.474 171.27 258.405 172.037 257.637 174.339ZM188.584 221.909C190.886 225.745 187.817 227.28 185.515 229.582C182.446 224.211 186.282 224.211 188.584 221.909ZM30.5292 271.781C32.8309 274.083 32.8309 277.152 24.3911 276.384C25.1584 269.479 28.2274 269.479 30.5292 271.781ZM322.087 13.9824C319.018 11.6806 321.32 10.1461 321.32 7.84428C324.389 10.9133 322.087 11.6806 322.087 13.9824ZM312.113 26.2585L311.345 27.793C309.043 25.4912 308.276 23.1895 312.113 26.2585ZM299.836 35.4655C293.698 32.3965 297.535 37.7673 299.836 35.4655V35.4655ZM190.886 314.747C188.584 317.049 187.817 314.747 185.515 313.98C188.584 311.678 188.584 313.98 190.886 314.747ZM239.223 371.524C236.154 374.593 235.387 372.291 233.085 369.99C236.154 367.688 236.921 370.757 239.223 371.524ZM309.811 494.285C299.069 498.122 305.207 481.242 309.811 494.285V494.285Z" fill="white"/>
</svg>
